# xmcd CD database file generated by Grip 3.3.1
# 
# Track frame offsets:
#       150
#       39277
#       71888
#       101997
#       106400
#       118913
#       130836
#       143395
#       154595
#       172498
#       181468
#       199959
#       212879
#       228316
#       237268
#       253612
# 
# Disc length: 4371 seconds
# 
# Revision: 1
# Processed by: cddbd v1.5.2PL0 Copyright (c) Steve Scherf et al.
# Submitted via: Grip 3.3.1
# 
DISCID=f0111110
DTITLE=Tristan Keuris - Complete Works [CD4]
DYEAR=2009
DGENRE=Blues
TTITLE0=I. Introduzione - Animato, String Quartet No.1 (1982), Orpheus Qu
TTITLE0=artet
TTITLE1=II. Calando - Molto lento, String Quartet No.1 (1982), Orpheus Qu
TTITLE1=artet
TTITLE2=III. Quasi agitato, String Quartet No.1 (1982), Orpheus Quartet
TTITLE3=I. Preludium, Seven Pieces for bass clarinet and chamber orchestr
TTITLE3=a (1983), Harry Sparnaay (basklarinet), Nederlands Radio Chamber 
TTITLE3=Philharmonic, Henrik Schaefer
TTITLE4=II. Moderato, Seven Pieces for bass clarinet and chamber orchestr
TTITLE4=a (1983), Harry Sparnaay (basklarinet), Nederlands Radio Chamber 
TTITLE4=Philharmonic, Henrik Schaefer
TTITLE5=III. Allegretto, Seven Pieces for bass clarinet and chamber orche
TTITLE5=stra (1983), Harry Sparnaay (basklarinet), Nederlands Radio Chamb
TTITLE5=er Philharmonic, Henrik Schaefer
TTITLE6=IV. Molto tranquillo, Seven Pieces for bass clarinet and chamber 
TTITLE6=orchestra (1983), Harry Sparnaay (basklarinet), Nederlands Radio 
TTITLE6=Chamber Philharmonic, Henrik Schaefer
TTITLE7=V. Animato, Seven Pieces for bass clarinet and chamber orchestra 
TTITLE7=(1983), Harry Sparnaay (basklarinet), Nederlands Radio Chamber Ph
TTITLE7=ilharmonic, Henrik Schaefer
TTITLE8=VI. Lento, Seven Pieces for bass clarinet and chamber orchestra (
TTITLE8=1983), Harry Sparnaay (basklarinet), Nederlands Radio Chamber Phi
TTITLE8=lharmonic, Henrik Schaefer
TTITLE9=VII. Postludium, Seven Pieces for bass clarinet and chamber orche
TTITLE9=stra (1983), Harry Sparnaay (basklarinet), Nederlands Radio Chamb
TTITLE9=er Philharmonic, Henrik Schaefer
TTITLE10=I. Vigoroso, Clarinet Quartet (1983), Netherlands Clarinet Quarte
TTITLE10=t
TTITLE11=II. Molto tranquillo, Clarinet Quartet (1983), Netherlands Clarin
TTITLE11=et Quartet
TTITLE12=III. Grazioso molto comodo, Clarinet Quartet (1983), Netherlands 
TTITLE12=Clarinet Quartet
TTITLE13=IV. Moderato senza espressione, Clarinet Quartet (1983), Netherla
TTITLE13=nds Clarinet Quartet
TTITLE14=V. Scorrevole molto leggiero, Clarinet Quartet (1983), Netherland
TTITLE14=s Clarinet Quartet
TTITLE15=Piano Trio (1984), Storioni Trio
EXTD=
EXTT0=
EXTT1=
EXTT2=
EXTT3=
EXTT4=
EXTT5=
EXTT6=
EXTT7=
EXTT8=
EXTT9=
EXTT10=
EXTT11=
EXTT12=
EXTT13=
EXTT14=
EXTT15=
PLAYORDER=
